[Scene-008] Analyzing scene content with Gemini...
Uploading /Users/shreybirmiwal/projects/GCinema/pipeline/output/CC-Girl-Scene/Scene-008/clip.mp4 ...
  Waiting for Gemini to process video ...
Upload complete: https://generativelanguage.googleapis.com/v1beta/files/g78eqza2p7u9
Generating description with gemini-3.1-pro-preview ...
Description written to: /Users/shreybirmiwal/projects/GCinema/pipeline/output/CC-Girl-Scene/Scene-008/description.txt
[Scene-008] Description saved.
[Scene-008] Extracting first frame as keyframe...
Frame saved to: /Users/shreybirmiwal/projects/GCinema/pipeline/output/CC-Girl-Scene/Scene-008/frame0.png
[Scene-008] Keyframe saved: frame0.png
[Scene-008] Waiting for Scene-007 colorization...
[Scene-008] Colorizing keyframe with Gemini...
[Scene-008] Using color reference from Scene-007
Input:     /Users/shreybirmiwal/projects/GCinema/pipeline/output/CC-Girl-Scene/Scene-008/frame0.png
Input2:    (none)
Reference: /Users/shreybirmiwal/projects/GCinema/pipeline/output/CC-Girl-Scene/Scene-007/frame0_colorized.jpg
Model:     gemini-3.1-flash-image-preview
Colorizing ...
Colorized image saved to: /Users/shreybirmiwal/projects/GCinema/pipeline/output/CC-Girl-Scene/Scene-008/frame0_colorized.jpg
[Scene-008] Colorized keyframe saved.
[Scene-008] Generating colorized video (7s target)...
Image:       /Users/shreybirmiwal/projects/GCinema/pipeline/output/CC-Girl-Scene/Scene-008/frame0_colorized.jpg
Description: /Users/shreybirmiwal/projects/GCinema/pipeline/output/CC-Girl-Scene/Scene-008/description.txt
Backend:     auto
Duration:    7s
Output:      /Users/shreybirmiwal/projects/GCinema/pipeline/output/CC-Girl-Scene/Scene-008/frame0_colorized_generated.mp4
Generating via Veo (veo-3.1-generate-preview) ...
Waiting for Veo to generate video.....Warning: Veo content filter blocked generation (filtered=1): ['We encountered an issue with the audio for your prompt, which means we could not create your video. This can sometimes happen due to our safety filters or other processing issues. Please modify your request and try again. You have not been charged for this attempt.']

Falling back to Kling ...
Uploading image to fal.ai ...
Calling Kling v3 Pro image-to-video (5s) ...
Downloading Kling video ...
Video saved to: /Users/shreybirmiwal/projects/GCinema/pipeline/output/CC-Girl-Scene/Scene-008/frame0_colorized_generated.mp4
[Scene-008] Generated video saved.
[Scene-008] Time-stretching to match original clip duration...
ffmpeg version 8.0 Copyright (c) 2000-2025 the FFmpeg developers
  built with Apple clang version 17.0.0 (clang-1700.0.13.3)
  configuration: --prefix=/opt/homebrew/Cellar/ffmpeg/8.0_1 --enable-shared --enable-pthreads --enable-version3 --cc=clang --host-cflags= --host-ldflags='-Wl,-ld_classic' --enable-ffplay --enable-gnutls --enable-gpl --enable-libaom --enable-libaribb24 --enable-libbluray --enable-libdav1d --enable-libharfbuzz --enable-libjxl --enable-libmp3lame --enable-libopus --enable-librav1e --enable-librist --enable-librubberband --enable-libsnappy --enable-libsrt --enable-libssh --enable-libsvtav1 --enable-libtesseract --enable-libtheora --enable-libvidstab --enable-libvmaf --enable-libvorbis --enable-libvpx --enable-libwebp --enable-libx264 --enable-libx265 --enable-libxml2 --enable-libxvid --enable-lzma --enable-libfontconfig --enable-libfreetype --enable-frei0r --enable-libass --enable-libopencore-amrnb --enable-libopencore-amrwb --enable-libopenjpeg --enable-libspeex --enable-libsoxr --enable-libzmq --enable-libzimg --disable-libjack --disable-indev=jack --enable-videotoolbox --enable-audiotoolbox --enable-neon
  libavutil      60.  8.100 / 60.  8.100
  libavcodec     62. 11.100 / 62. 11.100
  libavformat    62.  3.100 / 62.  3.100
  libavdevice    62.  1.100 / 62.  1.100
  libavfilter    11.  4.100 / 11.  4.100
  libswscale      9.  1.100 /  9.  1.100
  libswresample   6.  1.100 /  6.  1.100
Input #0, mov,mp4,m4a,3gp,3g2,mj2, from '/Users/shreybirmiwal/projects/GCinema/pipeline/output/CC-Girl-Scene/Scene-008/frame0_colorized_generated.mp4':
  Metadata:
    minor_version   : 512
    major_brand     : isom
    compatible_brands: isomiso2avc1mp41
    encoder         : Lavf60.16.100
  Duration: 00:00:05.04, start: 0.000000, bitrate: 16273 kb/s
  Stream #0:0[0x1](und): Audio: aac (LC) (mp4a / 0x6134706D), 44100 Hz, stereo, fltp, 128 kb/s (default)
    Metadata:
      handler_name    : SoundHandler
      vendor_id       : [0][0][0][0]
  Stream #0:1[0x2](und): Video: h264 (Main) (avc1 / 0x31637661), yuv420p(progressive), 1920x1080, 16136 kb/s, 24 fps, 24 tbr, 12288 tbn (default)
    Metadata:
      handler_name    : VideoHandler
      vendor_id       : [0][0][0][0]
      encoder         : Lavc60.31.102 h264_slapi
Stream mapping:
  Stream #0:1 -> #0:0 (h264 (native) -> h264 (libx264))
  Stream #0:0 -> #0:1 (aac (native) -> aac (native))
Press [q] to stop, [?] for help
[h264 @ 0x746811880] Late SEI is not implemented. Update your FFmpeg version to the newest one from Git. If the problem still occurs, it means that your file has a feature which has not been implemented.
[h264 @ 0x746811880] If you want to help, upload a sample of this file to https://streams.videolan.org/upload/ and contact the ffmpeg-devel mailing list. (ffmpeg-devel@ffmpeg.org)
[libx264 @ 0x746811180] using cpu capabilities: ARMv8 NEON DotProd I8MM
[libx264 @ 0x746811180] profile High, level 4.0, 4:2:0, 8-bit
[libx264 @ 0x746811180] 264 - core 165 r3222 b35605a - H.264/MPEG-4 AVC codec - Copyleft 2003-2025 - http://www.videolan.org/x264.html - options: cabac=1 ref=3 deblock=1:0:0 analyse=0x3:0x113 me=hex subme=7 psy=1 psy_rd=1.00:0.00 mixed_ref=1 me_range=16 chroma_me=1 trellis=1 8x8dct=1 cqm=0 deadzone=21,11 fast_pskip=1 chroma_qp_offset=-2 threads=21 lookahead_threads=3 sliced_threads=0 nr=0 decimate=1 interlaced=0 bluray_compat=0 constrained_intra=0 bframes=3 b_pyramid=2 b_adapt=1 b_bias=0 direct=1 weightb=1 open_gop=0 weightp=2 keyint=250 keyint_min=24 scenecut=40 intra_refresh=0 rc_lookahead=40 rc=crf mbtree=1 crf=23.0 qcomp=0.60 qpmin=0 qpmax=69 qpstep=4 ip_ratio=1.40 aq=1:1.00
Output #0, mp4, to '/Users/shreybirmiwal/projects/GCinema/pipeline/output/CC-Girl-Scene/Scene-008/frame0_colorized_generated_matched.mp4':
  Metadata:
    minor_version   : 512
    major_brand     : isom
    compatible_brands: isomiso2avc1mp41
    encoder         : Lavf62.3.100
  Stream #0:0(und): Video: h264 (avc1 / 0x31637661), yuv420p(tv, progressive), 1920x1080, q=2-31, 24 fps, 12288 tbn (default)
    Metadata:
      encoder         : Lavc62.11.100 libx264
      handler_name    : VideoHandler
      vendor_id       : [0][0][0][0]
    Side data:
      cpb: bitrate max/min/avg: 0/0/0 buffer size: 0 vbv_delay: N/A
  Stream #0:1(und): Audio: aac (LC) (mp4a / 0x6134706D), 44100 Hz, stereo, fltp, 128 kb/s (default)
    Metadata:
      encoder         : Lavc62.11.100 aac
      handler_name    : SoundHandler
      vendor_id       : [0][0][0][0]
frame=    0 fps=0.0 q=0.0 size=       0KiB time=N/A bitrate=N/A speed=N/A elapsed=0:00:00.50    frame=   15 fps= 15 q=28.0 size=     256KiB time=00:00:00.70 bitrate=2961.2kbits/s speed=0.702x elapsed=0:00:01.00    frame=   35 fps= 23 q=27.0 size=    1024KiB time=00:00:01.87 bitrate=4474.1kbits/s speed=1.24x elapsed=0:00:01.51    frame=   57 fps= 28 q=26.0 size=    1792KiB time=N/A bitrate=N/A speed=N/A elapsed=0:00:02.01    frame=   91 fps= 36 q=28.0 size=    2560KiB time=N/A bitrate=N/A speed=N/A elapsed=0:00:02.52    [out#0/mp4 @ 0x746814300] video:3205KiB audio:108KiB subtitle:0KiB other streams:0KiB global headers:0KiB muxing overhead: 0.204478%
frame=  121 fps= 44 q=-1.0 Lsize=    3320KiB time=00:00:06.79 bitrate=4004.3kbits/s speed=2.45x elapsed=0:00:02.77    
[libx264 @ 0x746811180] frame I:2     Avg QP:21.13  size: 78370
[libx264 @ 0x746811180] frame P:45    Avg QP:21.20  size: 30381
[libx264 @ 0x746811180] frame B:74    Avg QP:21.94  size: 23749
[libx264 @ 0x746811180] consecutive B-frames: 10.7%  9.9% 39.7% 39.7%
[libx264 @ 0x746811180] mb I  I16..4: 24.6% 67.6%  7.8%
[libx264 @ 0x746811180] mb P  I16..4: 25.4% 32.4%  1.1%  P16..4: 24.6%  5.8%  1.9%  0.0%  0.0%    skip: 8.8%
[libx264 @ 0x746811180] mb B  I16..4: 12.7% 14.6%  0.4%  B16..8: 34.9%  5.7%  0.5%  direct: 5.8%  skip:25.3%  L0:68.4% L1:28.5% BI: 3.2%
[libx264 @ 0x746811180] 8x8 transform intra:54.5% inter:83.8%
[libx264 @ 0x746811180] coded y,uvDC,uvAC intra: 30.9% 41.4% 4.4% inter: 21.3% 27.4% 0.0%
[libx264 @ 0x746811180] i16 v,h,dc,p: 33% 27% 12% 28%
[libx264 @ 0x746811180] i8 v,h,dc,ddl,ddr,vr,hd,vl,hu: 26% 18% 40%  2%  4%  3%  3%  2%  2%
[libx264 @ 0x746811180] i4 v,h,dc,ddl,ddr,vr,hd,vl,hu: 40% 14% 18%  2%  9%  7%  4%  3%  2%
[libx264 @ 0x746811180] i8c dc,h,v,p: 56% 19% 22%  3%
[libx264 @ 0x746811180] Weighted P-Frames: Y:0.0% UV:0.0%
[libx264 @ 0x746811180] ref P L0: 66.7% 14.4% 13.7%  5.2%
[libx264 @ 0x746811180] ref B L0: 83.5% 13.7%  2.9%
[libx264 @ 0x746811180] ref B L1: 96.8%  3.2%
[libx264 @ 0x746811180] kb/s:3772.58
[aac @ 0x746899180] Qavg: 750.261
Original duration:   6.917s
Colorized duration:  5.042s
PTS factor:          1.3719x  (target: 6.917s)
Running: ffmpeg -y -i /Users/shreybirmiwal/projects/GCinema/pipeline/output/CC-Girl-Scene/Scene-008/frame0_colorized_generated.mp4 -vf setpts=1.371901*PTS -af atempo=0.728916 /Users/shreybirmiwal/projects/GCinema/pipeline/output/CC-Girl-Scene/Scene-008/frame0_colorized_generated_matched.mp4
Output saved to: /Users/shreybirmiwal/projects/GCinema/pipeline/output/CC-Girl-Scene/Scene-008/frame0_colorized_generated_matched.mp4
[Scene-008] Matched video saved.
[Scene-008] All steps complete!
